<svg width="512" height="512" viewBox="0 0 512 512" fill="none" xmlns="http://www.w3.org/2000/svg">
<g clip-path="url(#clip0_441_8049)">
<path d="M512 0H0V512H512V0Z" fill="white"/>
<path d="M285.324 112.64H418.909V122.415C401.804 122.415 379.811 160.291 379.811 196.131V325.644C379.811 363.52 387.142 389.585 399.36 389.585V399.36H303.244L148.48 198.167V299.578C148.48 348.451 180.247 389.585 226.676 389.585V399.36H93.0908V389.585C110.196 389.585 132.189 351.709 132.189 315.869V166.807C132.189 129.745 110.196 122.415 93.0908 122.415V112.64H246.225V122.415C223.011 122.415 243.375 173.324 275.142 212.422L363.52 321.164V212.422C363.52 163.549 331.753 122.415 285.324 122.415V112.64Z" fill="black"/>
</g>
<defs>
<clipPath id="clip0_441_8049">
<rect width="512" height="512" fill="white"/>
</clipPath>
</defs>
</svg>
