<svg xmlns="http://www.w3.org/2000/svg" width="900" height="414" viewBox="0 0 900 414" font-family="-apple-system,BlinkMacSystemFont,Segoe UI,Helvetica,Arial,sans-serif">
<rect x="0.5" y="0.5" width="899" height="413" rx="14" fill="#ffffff" stroke="#e8eaed"/>
<text x="136" y="36" font-size="9" fill="#9aa0a6" text-anchor="middle">50</text>
<text x="176" y="36" font-size="9" fill="#9aa0a6" text-anchor="middle">100</text>
<text x="216" y="36" font-size="9" fill="#9aa0a6" text-anchor="middle">150</text>
<text x="256" y="36" font-size="9" fill="#9aa0a6" text-anchor="middle">200</text>
<text x="296" y="36" font-size="9" fill="#9aa0a6" text-anchor="middle">250</text>
<text x="336" y="36" font-size="9" fill="#9aa0a6" text-anchor="middle">300</text>
<text x="376" y="36" font-size="9" fill="#9aa0a6" text-anchor="middle">350</text>
<text x="416" y="36" font-size="9" fill="#9aa0a6" text-anchor="middle">400</text>
<text x="456" y="36" font-size="9" fill="#9aa0a6" text-anchor="middle">450</text>
<text x="496" y="36" font-size="9" fill="#9aa0a6" text-anchor="middle">500</text>
<text x="536" y="36" font-size="9" fill="#9aa0a6" text-anchor="middle">550</text>
<text x="576" y="36" font-size="9" fill="#9aa0a6" text-anchor="middle">600</text>
<text x="616" y="36" font-size="9" fill="#9aa0a6" text-anchor="middle">650</text>
<text x="656" y="36" font-size="9" fill="#9aa0a6" text-anchor="middle">700</text>
<text x="696" y="36" font-size="9" fill="#9aa0a6" text-anchor="middle">750</text>
<text x="736" y="36" font-size="9" fill="#9aa0a6" text-anchor="middle">800</text>
<text x="776" y="36" font-size="9" fill="#9aa0a6" text-anchor="middle">850</text>
<text x="816" y="36" font-size="9" fill="#9aa0a6" text-anchor="middle">900</text>
<text x="856" y="36" font-size="9" fill="#9aa0a6" text-anchor="middle">950</text>
<clipPath id="r0"><rect x="116" y="48" width="760" height="34" rx="6"/></clipPath>
<g clip-path="url(#r0)">
<rect x="116" y="48" width="40" height="34" fill="#FFFFFF"/>
<rect x="156" y="48" width="40" height="34" fill="#EFF0F3"/>
<rect x="196" y="48" width="40" height="34" fill="#DFE2E8"/>
<rect x="236" y="48" width="40" height="34" fill="#CFD4DE"/>
<rect x="276" y="48" width="40" height="34" fill="#BFC5D5"/>
<rect x="316" y="48" width="40" height="34" fill="#AFB7CC"/>
<rect x="356" y="48" width="40" height="34" fill="#9FA9C4"/>
<rect x="396" y="48" width="40" height="34" fill="#8F9CBA"/>
<rect x="436" y="48" width="40" height="34" fill="#808EB0"/>
<rect x="476" y="48" width="40" height="34" fill="#7281A4"/>
<rect x="516" y="48" width="40" height="34" fill="#667395"/>
<rect x="556" y="48" width="40" height="34" fill="#5B6785"/>
<rect x="596" y="48" width="40" height="34" fill="#505A74"/>
<rect x="636" y="48" width="40" height="34" fill="#454E63"/>
<rect x="676" y="48" width="40" height="34" fill="#3B4252"/>
<rect x="716" y="48" width="40" height="34" fill="#313642"/>
<rect x="756" y="48" width="40" height="34" fill="#272A32"/>
<rect x="796" y="48" width="40" height="34" fill="#1C1E22"/>
<rect x="836" y="48" width="40" height="34" fill="#101113"/>
</g>
<rect x="116" y="48" width="760" height="34" rx="6" fill="none" stroke="#00000014"/>
<text x="104" y="69" font-size="13" font-weight="600" fill="#202124" text-anchor="end">Neutral</text>
<clipPath id="r1"><rect x="116" y="88" width="760" height="34" rx="6"/></clipPath>
<g clip-path="url(#r1)">
<rect x="116" y="88" width="40" height="34" fill="#FFFFFF"/>
<rect x="156" y="88" width="40" height="34" fill="#EDF1F7"/>
<rect x="196" y="88" width="40" height="34" fill="#D9E3F2"/>
<rect x="236" y="88" width="40" height="34" fill="#C3D5F0"/>
<rect x="276" y="88" width="40" height="34" fill="#ACC7F0"/>
<rect x="316" y="88" width="40" height="34" fill="#94B9F2"/>
<rect x="356" y="88" width="40" height="34" fill="#7BABF4"/>
<rect x="396" y="88" width="40" height="34" fill="#629CF5"/>
<rect x="436" y="88" width="40" height="34" fill="#488CF6"/>
<rect x="476" y="88" width="40" height="34" fill="#2B7BF4"/>
<rect x="516" y="88" width="40" height="34" fill="#226EDF"/>
<rect x="556" y="88" width="40" height="34" fill="#2363C4"/>
<rect x="596" y="88" width="40" height="34" fill="#2358A8"/>
<rect x="636" y="88" width="40" height="34" fill="#234D8D"/>
<rect x="676" y="88" width="40" height="34" fill="#224172"/>
<rect x="716" y="88" width="40" height="34" fill="#1F3659"/>
<rect x="756" y="88" width="40" height="34" fill="#1B2A41"/>
<rect x="796" y="88" width="40" height="34" fill="#161E2B"/>
<rect x="836" y="88" width="40" height="34" fill="#0E1117"/>
</g>
<rect x="116" y="88" width="760" height="34" rx="6" fill="none" stroke="#00000014"/>
<text x="104" y="109" font-size="13" font-weight="600" fill="#202124" text-anchor="end">Primary</text>
<clipPath id="r2"><rect x="116" y="128" width="760" height="34" rx="6"/></clipPath>
<g clip-path="url(#r2)">
<rect x="116" y="128" width="40" height="34" fill="#FFFFFF"/>
<rect x="156" y="128" width="40" height="34" fill="#E8F4EE"/>
<rect x="196" y="128" width="40" height="34" fill="#C9ECDA"/>
<rect x="236" y="128" width="40" height="34" fill="#A2E5C4"/>
<rect x="276" y="128" width="40" height="34" fill="#7BDDB0"/>
<rect x="316" y="128" width="40" height="34" fill="#5AD29F"/>
<rect x="356" y="128" width="40" height="34" fill="#3FC490"/>
<rect x="396" y="128" width="40" height="34" fill="#29B683"/>
<rect x="436" y="128" width="40" height="34" fill="#14A876"/>
<rect x="476" y="128" width="40" height="34" fill="#00996A"/>
<rect x="516" y="128" width="40" height="34" fill="#108960"/>
<rect x="556" y="128" width="40" height="34" fill="#1B7956"/>
<rect x="596" y="128" width="40" height="34" fill="#1F6A4C"/>
<rect x="636" y="128" width="40" height="34" fill="#205B42"/>
<rect x="676" y="128" width="40" height="34" fill="#1F4C39"/>
<rect x="716" y="128" width="40" height="34" fill="#1C3E2F"/>
<rect x="756" y="128" width="40" height="34" fill="#193025"/>
<rect x="796" y="128" width="40" height="34" fill="#14211B"/>
<rect x="836" y="128" width="40" height="34" fill="#0C1310"/>
</g>
<rect x="116" y="128" width="760" height="34" rx="6" fill="none" stroke="#00000014"/>
<text x="104" y="149" font-size="13" font-weight="600" fill="#202124" text-anchor="end">Secondary</text>
<clipPath id="r3"><rect x="116" y="168" width="760" height="34" rx="6"/></clipPath>
<g clip-path="url(#r3)">
<rect x="116" y="168" width="40" height="34" fill="#FFFFFF"/>
<rect x="156" y="168" width="40" height="34" fill="#F1F0F2"/>
<rect x="196" y="168" width="40" height="34" fill="#E4E0E7"/>
<rect x="236" y="168" width="40" height="34" fill="#D8D0DD"/>
<rect x="276" y="168" width="40" height="34" fill="#CCC1D3"/>
<rect x="316" y="168" width="40" height="34" fill="#C0B1CA"/>
<rect x="356" y="168" width="40" height="34" fill="#B4A1C1"/>
<rect x="396" y="168" width="40" height="34" fill="#A892B7"/>
<rect x="436" y="168" width="40" height="34" fill="#9C83AD"/>
<rect x="476" y="168" width="40" height="34" fill="#9075A1"/>
<rect x="516" y="168" width="40" height="34" fill="#826992"/>
<rect x="556" y="168" width="40" height="34" fill="#735D81"/>
<rect x="596" y="168" width="40" height="34" fill="#655271"/>
<rect x="636" y="168" width="40" height="34" fill="#564860"/>
<rect x="676" y="168" width="40" height="34" fill="#483D50"/>
<rect x="716" y="168" width="40" height="34" fill="#3A3240"/>
<rect x="756" y="168" width="40" height="34" fill="#2D2830"/>
<rect x="796" y="168" width="40" height="34" fill="#201D22"/>
<rect x="836" y="168" width="40" height="34" fill="#121013"/>
</g>
<rect x="116" y="168" width="760" height="34" rx="6" fill="none" stroke="#00000014"/>
<text x="104" y="189" font-size="13" font-weight="600" fill="#202124" text-anchor="end">Tertiary</text>
<clipPath id="r4"><rect x="116" y="208" width="760" height="34" rx="6"/></clipPath>
<g clip-path="url(#r4)">
<rect x="116" y="208" width="40" height="34" fill="#FFFFFF"/>
<rect x="156" y="208" width="40" height="34" fill="#EEF1F3"/>
<rect x="196" y="208" width="40" height="34" fill="#DBE3E9"/>
<rect x="236" y="208" width="40" height="34" fill="#C7D6E0"/>
<rect x="276" y="208" width="40" height="34" fill="#B2C9D8"/>
<rect x="316" y="208" width="40" height="34" fill="#9DBDD1"/>
<rect x="356" y="208" width="40" height="34" fill="#89B0C8"/>
<rect x="396" y="208" width="40" height="34" fill="#77A2BE"/>
<rect x="436" y="208" width="40" height="34" fill="#6795B1"/>
<rect x="476" y="208" width="40" height="34" fill="#5A88A4"/>
<rect x="516" y="208" width="40" height="34" fill="#507A94"/>
<rect x="556" y="208" width="40" height="34" fill="#486D83"/>
<rect x="596" y="208" width="40" height="34" fill="#405F72"/>
<rect x="636" y="208" width="40" height="34" fill="#395262"/>
<rect x="676" y="208" width="40" height="34" fill="#314551"/>
<rect x="716" y="208" width="40" height="34" fill="#2A3841"/>
<rect x="756" y="208" width="40" height="34" fill="#222C32"/>
<rect x="796" y="208" width="40" height="34" fill="#191F23"/>
<rect x="836" y="208" width="40" height="34" fill="#0F1113"/>
</g>
<rect x="116" y="208" width="760" height="34" rx="6" fill="none" stroke="#00000014"/>
<text x="104" y="229" font-size="13" font-weight="600" fill="#202124" text-anchor="end">Info</text>
<clipPath id="r5"><rect x="116" y="248" width="760" height="34" rx="6"/></clipPath>
<g clip-path="url(#r5)">
<rect x="116" y="248" width="40" height="34" fill="#FFFFFF"/>
<rect x="156" y="248" width="40" height="34" fill="#EEF2ED"/>
<rect x="196" y="248" width="40" height="34" fill="#DBE6D9"/>
<rect x="236" y="248" width="40" height="34" fill="#C6DBC3"/>
<rect x="276" y="248" width="40" height="34" fill="#B1D0AD"/>
<rect x="316" y="248" width="40" height="34" fill="#9DC498"/>
<rect x="356" y="248" width="40" height="34" fill="#8AB885"/>
<rect x="396" y="248" width="40" height="34" fill="#7AAB75"/>
<rect x="436" y="248" width="40" height="34" fill="#6C9E67"/>
<rect x="476" y="248" width="40" height="34" fill="#5F905B"/>
<rect x="516" y="248" width="40" height="34" fill="#568152"/>
<rect x="556" y="248" width="40" height="34" fill="#4D7349"/>
<rect x="596" y="248" width="40" height="34" fill="#456441"/>
<rect x="636" y="248" width="40" height="34" fill="#3D563A"/>
<rect x="676" y="248" width="40" height="34" fill="#344832"/>
<rect x="716" y="248" width="40" height="34" fill="#2C3B2A"/>
<rect x="756" y="248" width="40" height="34" fill="#232D22"/>
<rect x="796" y="248" width="40" height="34" fill="#1A2019"/>
<rect x="836" y="248" width="40" height="34" fill="#0F120F"/>
</g>
<rect x="116" y="248" width="760" height="34" rx="6" fill="none" stroke="#00000014"/>
<text x="104" y="269" font-size="13" font-weight="600" fill="#202124" text-anchor="end">Success</text>
<clipPath id="r6"><rect x="116" y="288" width="760" height="34" rx="6"/></clipPath>
<g clip-path="url(#r6)">
<rect x="116" y="288" width="40" height="34" fill="#FFFFFF"/>
<rect x="156" y="288" width="40" height="34" fill="#F6EFE8"/>
<rect x="196" y="288" width="40" height="34" fill="#F1DFCC"/>
<rect x="236" y="288" width="40" height="34" fill="#EECDA9"/>
<rect x="276" y="288" width="40" height="34" fill="#EEBB81"/>
<rect x="316" y="288" width="40" height="34" fill="#EBA858"/>
<rect x="356" y="288" width="40" height="34" fill="#E29833"/>
<rect x="396" y="288" width="40" height="34" fill="#D48919"/>
<rect x="436" y="288" width="40" height="34" fill="#C47C07"/>
<rect x="476" y="288" width="40" height="34" fill="#B37000"/>
<rect x="516" y="288" width="40" height="34" fill="#A16504"/>
<rect x="556" y="288" width="40" height="34" fill="#8E5A0B"/>
<rect x="596" y="288" width="40" height="34" fill="#7C5010"/>
<rect x="636" y="288" width="40" height="34" fill="#6A4515"/>
<rect x="676" y="288" width="40" height="34" fill="#583B16"/>
<rect x="716" y="288" width="40" height="34" fill="#473116"/>
<rect x="756" y="288" width="40" height="34" fill="#362715"/>
<rect x="796" y="288" width="40" height="34" fill="#251C11"/>
<rect x="836" y="288" width="40" height="34" fill="#15100B"/>
</g>
<rect x="116" y="288" width="760" height="34" rx="6" fill="none" stroke="#00000014"/>
<text x="104" y="309" font-size="13" font-weight="600" fill="#202124" text-anchor="end">Warning</text>
<clipPath id="r7"><rect x="116" y="328" width="760" height="34" rx="6"/></clipPath>
<g clip-path="url(#r7)">
<rect x="116" y="328" width="40" height="34" fill="#FFFFFF"/>
<rect x="156" y="328" width="40" height="34" fill="#F4EFEE"/>
<rect x="196" y="328" width="40" height="34" fill="#ECDFDC"/>
<rect x="236" y="328" width="40" height="34" fill="#E6CDC9"/>
<rect x="276" y="328" width="40" height="34" fill="#E0BCB5"/>
<rect x="316" y="328" width="40" height="34" fill="#DCAAA1"/>
<rect x="356" y="328" width="40" height="34" fill="#D6978C"/>
<rect x="396" y="328" width="40" height="34" fill="#D08579"/>
<rect x="436" y="328" width="40" height="34" fill="#C77466"/>
<rect x="476" y="328" width="40" height="34" fill="#BB6658"/>
<rect x="516" y="328" width="40" height="34" fill="#A95B4E"/>
<rect x="556" y="328" width="40" height="34" fill="#955146"/>
<rect x="596" y="328" width="40" height="34" fill="#82493F"/>
<rect x="636" y="328" width="40" height="34" fill="#6E4038"/>
<rect x="676" y="328" width="40" height="34" fill="#5B3731"/>
<rect x="716" y="328" width="40" height="34" fill="#482E2A"/>
<rect x="756" y="328" width="40" height="34" fill="#362522"/>
<rect x="796" y="328" width="40" height="34" fill="#251B19"/>
<rect x="836" y="328" width="40" height="34" fill="#14100F"/>
</g>
<rect x="116" y="328" width="760" height="34" rx="6" fill="none" stroke="#00000014"/>
<text x="104" y="349" font-size="13" font-weight="600" fill="#202124" text-anchor="end">Danger</text>
<text x="24" y="400" font-size="11" fill="#9aa0a6">HCT Palette Generator — the 8 default palettes, perceptually-even tonal ramps (050 → 950). Generated from the engine.</text>
</svg>
