<svg xmlns="http://www.w3.org/2000/svg" width="900" height="414" viewBox="0 0 900 414" font-family="-apple-system,BlinkMacSystemFont,Segoe UI,Helvetica,Arial,sans-serif">
<rect x="0.5" y="0.5" width="899" height="413" rx="14" fill="#ffffff" stroke="#e8eaed"/>
<text x="136" y="36" font-size="9" fill="#9aa0a6" text-anchor="middle">50</text>
<text x="176" y="36" font-size="9" fill="#9aa0a6" text-anchor="middle">100</text>
<text x="216" y="36" font-size="9" fill="#9aa0a6" text-anchor="middle">150</text>
<text x="256" y="36" font-size="9" fill="#9aa0a6" text-anchor="middle">200</text>
<text x="296" y="36" font-size="9" fill="#9aa0a6" text-anchor="middle">250</text>
<text x="336" y="36" font-size="9" fill="#9aa0a6" text-anchor="middle">300</text>
<text x="376" y="36" font-size="9" fill="#9aa0a6" text-anchor="middle">350</text>
<text x="416" y="36" font-size="9" fill="#9aa0a6" text-anchor="middle">400</text>
<text x="456" y="36" font-size="9" fill="#9aa0a6" text-anchor="middle">450</text>
<text x="496" y="36" font-size="9" fill="#9aa0a6" text-anchor="middle">500</text>
<text x="536" y="36" font-size="9" fill="#9aa0a6" text-anchor="middle">550</text>
<text x="576" y="36" font-size="9" fill="#9aa0a6" text-anchor="middle">600</text>
<text x="616" y="36" font-size="9" fill="#9aa0a6" text-anchor="middle">650</text>
<text x="656" y="36" font-size="9" fill="#9aa0a6" text-anchor="middle">700</text>
<text x="696" y="36" font-size="9" fill="#9aa0a6" text-anchor="middle">750</text>
<text x="736" y="36" font-size="9" fill="#9aa0a6" text-anchor="middle">800</text>
<text x="776" y="36" font-size="9" fill="#9aa0a6" text-anchor="middle">850</text>
<text x="816" y="36" font-size="9" fill="#9aa0a6" text-anchor="middle">900</text>
<text x="856" y="36" font-size="9" fill="#9aa0a6" text-anchor="middle">950</text>
<clipPath id="r0"><rect x="116" y="48" width="760" height="34" rx="6"/></clipPath>
<g clip-path="url(#r0)">
<rect x="116" y="48" width="40" height="34" fill="#FFFFFF"/>
<rect x="156" y="48" width="40" height="34" fill="#EFF0F3"/>
<rect x="196" y="48" width="40" height="34" fill="#DFE2E8"/>
<rect x="236" y="48" width="40" height="34" fill="#CED4DE"/>
<rect x="276" y="48" width="40" height="34" fill="#BCC6D5"/>
<rect x="316" y="48" width="40" height="34" fill="#ABB9CC"/>
<rect x="356" y="48" width="40" height="34" fill="#9AABC3"/>
<rect x="396" y="48" width="40" height="34" fill="#8A9DBA"/>
<rect x="436" y="48" width="40" height="34" fill="#7B90AF"/>
<rect x="476" y="48" width="40" height="34" fill="#6D83A3"/>
<rect x="516" y="48" width="40" height="34" fill="#617594"/>
<rect x="556" y="48" width="40" height="34" fill="#566884"/>
<rect x="596" y="48" width="40" height="34" fill="#4C5C73"/>
<rect x="636" y="48" width="40" height="34" fill="#434F62"/>
<rect x="676" y="48" width="40" height="34" fill="#394351"/>
<rect x="716" y="48" width="40" height="34" fill="#2F3641"/>
<rect x="756" y="48" width="40" height="34" fill="#262A31"/>
<rect x="796" y="48" width="40" height="34" fill="#1B1E22"/>
<rect x="836" y="48" width="40" height="34" fill="#101113"/>
</g>
<rect x="116" y="48" width="760" height="34" rx="6" fill="none" stroke="#00000014"/>
<text x="104" y="69" font-size="13" font-weight="600" fill="#202124" text-anchor="end">Neutral</text>
<clipPath id="r1"><rect x="116" y="88" width="760" height="34" rx="6"/></clipPath>
<g clip-path="url(#r1)">
<rect x="116" y="88" width="40" height="34" fill="#FFFFFF"/>
<rect x="156" y="88" width="40" height="34" fill="#EDF1F7"/>
<rect x="196" y="88" width="40" height="34" fill="#D9E3F2"/>
<rect x="236" y="88" width="40" height="34" fill="#C3D5F0"/>
<rect x="276" y="88" width="40" height="34" fill="#ACC7F0"/>
<rect x="316" y="88" width="40" height="34" fill="#94B9F2"/>
<rect x="356" y="88" width="40" height="34" fill="#7AABF4"/>
<rect x="396" y="88" width="40" height="34" fill="#609CF5"/>
<rect x="436" y="88" width="40" height="34" fill="#458CF5"/>
<rect x="476" y="88" width="40" height="34" fill="#277CF4"/>
<rect x="516" y="88" width="40" height="34" fill="#216FDD"/>
<rect x="556" y="88" width="40" height="34" fill="#2164C2"/>
<rect x="596" y="88" width="40" height="34" fill="#2258A7"/>
<rect x="636" y="88" width="40" height="34" fill="#224D8C"/>
<rect x="676" y="88" width="40" height="34" fill="#224271"/>
<rect x="716" y="88" width="40" height="34" fill="#1F3658"/>
<rect x="756" y="88" width="40" height="34" fill="#1B2A41"/>
<rect x="796" y="88" width="40" height="34" fill="#161E2B"/>
<rect x="836" y="88" width="40" height="34" fill="#0D1117"/>
</g>
<rect x="116" y="88" width="760" height="34" rx="6" fill="none" stroke="#00000014"/>
<text x="104" y="109" font-size="13" font-weight="600" fill="#202124" text-anchor="end">Primary</text>
<clipPath id="r2"><rect x="116" y="128" width="760" height="34" rx="6"/></clipPath>
<g clip-path="url(#r2)">
<rect x="116" y="128" width="40" height="34" fill="#FFFFFF"/>
<rect x="156" y="128" width="40" height="34" fill="#E8F4EE"/>
<rect x="196" y="128" width="40" height="34" fill="#C9ECDA"/>
<rect x="236" y="128" width="40" height="34" fill="#A2E5C4"/>
<rect x="276" y="128" width="40" height="34" fill="#7BDDB0"/>
<rect x="316" y="128" width="40" height="34" fill="#5AD29F"/>
<rect x="356" y="128" width="40" height="34" fill="#3FC490"/>
<rect x="396" y="128" width="40" height="34" fill="#2AB682"/>
<rect x="436" y="128" width="40" height="34" fill="#14A875"/>
<rect x="476" y="128" width="40" height="34" fill="#00996A"/>
<rect x="516" y="128" width="40" height="34" fill="#10895F"/>
<rect x="556" y="128" width="40" height="34" fill="#1B7956"/>
<rect x="596" y="128" width="40" height="34" fill="#1F6A4C"/>
<rect x="636" y="128" width="40" height="34" fill="#205B42"/>
<rect x="676" y="128" width="40" height="34" fill="#1F4C38"/>
<rect x="716" y="128" width="40" height="34" fill="#1C3E2F"/>
<rect x="756" y="128" width="40" height="34" fill="#193025"/>
<rect x="796" y="128" width="40" height="34" fill="#14211B"/>
<rect x="836" y="128" width="40" height="34" fill="#0C1310"/>
</g>
<rect x="116" y="128" width="760" height="34" rx="6" fill="none" stroke="#00000014"/>
<text x="104" y="149" font-size="13" font-weight="600" fill="#202124" text-anchor="end">Secondary</text>
<clipPath id="r3"><rect x="116" y="168" width="760" height="34" rx="6"/></clipPath>
<g clip-path="url(#r3)">
<rect x="116" y="168" width="40" height="34" fill="#FFFFFF"/>
<rect x="156" y="168" width="40" height="34" fill="#F1F0F2"/>
<rect x="196" y="168" width="40" height="34" fill="#E3E0E7"/>
<rect x="236" y="168" width="40" height="34" fill="#D6D1DD"/>
<rect x="276" y="168" width="40" height="34" fill="#CAC1D4"/>
<rect x="316" y="168" width="40" height="34" fill="#BDB2CC"/>
<rect x="356" y="168" width="40" height="34" fill="#B1A2C3"/>
<rect x="396" y="168" width="40" height="34" fill="#A593B9"/>
<rect x="436" y="168" width="40" height="34" fill="#9984AF"/>
<rect x="476" y="168" width="40" height="34" fill="#8C76A3"/>
<rect x="516" y="168" width="40" height="34" fill="#7E6A94"/>
<rect x="556" y="168" width="40" height="34" fill="#705E84"/>
<rect x="596" y="168" width="40" height="34" fill="#625373"/>
<rect x="636" y="168" width="40" height="34" fill="#544862"/>
<rect x="676" y="168" width="40" height="34" fill="#473D51"/>
<rect x="716" y="168" width="40" height="34" fill="#393341"/>
<rect x="756" y="168" width="40" height="34" fill="#2C2831"/>
<rect x="796" y="168" width="40" height="34" fill="#1F1D22"/>
<rect x="836" y="168" width="40" height="34" fill="#121113"/>
</g>
<rect x="116" y="168" width="760" height="34" rx="6" fill="none" stroke="#00000014"/>
<text x="104" y="189" font-size="13" font-weight="600" fill="#202124" text-anchor="end">Tertiary</text>
<clipPath id="r4"><rect x="116" y="208" width="760" height="34" rx="6"/></clipPath>
<g clip-path="url(#r4)">
<rect x="116" y="208" width="40" height="34" fill="#FFFFFF"/>
<rect x="156" y="208" width="40" height="34" fill="#EEF1F3"/>
<rect x="196" y="208" width="40" height="34" fill="#DBE4E9"/>
<rect x="236" y="208" width="40" height="34" fill="#C6D7E0"/>
<rect x="276" y="208" width="40" height="34" fill="#B1CAD8"/>
<rect x="316" y="208" width="40" height="34" fill="#9CBDD0"/>
<rect x="356" y="208" width="40" height="34" fill="#87B0C7"/>
<rect x="396" y="208" width="40" height="34" fill="#75A3BC"/>
<rect x="436" y="208" width="40" height="34" fill="#6696AF"/>
<rect x="476" y="208" width="40" height="34" fill="#5988A1"/>
<rect x="516" y="208" width="40" height="34" fill="#4F7B92"/>
<rect x="556" y="208" width="40" height="34" fill="#476D81"/>
<rect x="596" y="208" width="40" height="34" fill="#3F6071"/>
<rect x="636" y="208" width="40" height="34" fill="#385260"/>
<rect x="676" y="208" width="40" height="34" fill="#314550"/>
<rect x="716" y="208" width="40" height="34" fill="#293841"/>
<rect x="756" y="208" width="40" height="34" fill="#222C31"/>
<rect x="796" y="208" width="40" height="34" fill="#191F22"/>
<rect x="836" y="208" width="40" height="34" fill="#0F1213"/>
</g>
<rect x="116" y="208" width="760" height="34" rx="6" fill="none" stroke="#00000014"/>
<text x="104" y="229" font-size="13" font-weight="600" fill="#202124" text-anchor="end">Info</text>
<clipPath id="r5"><rect x="116" y="248" width="760" height="34" rx="6"/></clipPath>
<g clip-path="url(#r5)">
<rect x="116" y="248" width="40" height="34" fill="#FFFFFF"/>
<rect x="156" y="248" width="40" height="34" fill="#EEF2ED"/>
<rect x="196" y="248" width="40" height="34" fill="#DAE6DA"/>
<rect x="236" y="248" width="40" height="34" fill="#C5DBC4"/>
<rect x="276" y="248" width="40" height="34" fill="#AFD0AF"/>
<rect x="316" y="248" width="40" height="34" fill="#9BC59A"/>
<rect x="356" y="248" width="40" height="34" fill="#88B888"/>
<rect x="396" y="248" width="40" height="34" fill="#77AB78"/>
<rect x="436" y="248" width="40" height="34" fill="#699E6A"/>
<rect x="476" y="248" width="40" height="34" fill="#5D905E"/>
<rect x="516" y="248" width="40" height="34" fill="#548154"/>
<rect x="556" y="248" width="40" height="34" fill="#4B734C"/>
<rect x="596" y="248" width="40" height="34" fill="#436543"/>
<rect x="636" y="248" width="40" height="34" fill="#3B563B"/>
<rect x="676" y="248" width="40" height="34" fill="#334833"/>
<rect x="716" y="248" width="40" height="34" fill="#2B3B2B"/>
<rect x="756" y="248" width="40" height="34" fill="#232D23"/>
<rect x="796" y="248" width="40" height="34" fill="#1A201A"/>
<rect x="836" y="248" width="40" height="34" fill="#0F120F"/>
</g>
<rect x="116" y="248" width="760" height="34" rx="6" fill="none" stroke="#00000014"/>
<text x="104" y="269" font-size="13" font-weight="600" fill="#202124" text-anchor="end">Success</text>
<clipPath id="r6"><rect x="116" y="288" width="760" height="34" rx="6"/></clipPath>
<g clip-path="url(#r6)">
<rect x="116" y="288" width="40" height="34" fill="#FFFFFF"/>
<rect x="156" y="288" width="40" height="34" fill="#F6EFE8"/>
<rect x="196" y="288" width="40" height="34" fill="#F0DFCC"/>
<rect x="236" y="288" width="40" height="34" fill="#EECDA9"/>
<rect x="276" y="288" width="40" height="34" fill="#EDBB81"/>
<rect x="316" y="288" width="40" height="34" fill="#EAA857"/>
<rect x="356" y="288" width="40" height="34" fill="#E29833"/>
<rect x="396" y="288" width="40" height="34" fill="#D48919"/>
<rect x="436" y="288" width="40" height="34" fill="#C37D07"/>
<rect x="476" y="288" width="40" height="34" fill="#B27100"/>
<rect x="516" y="288" width="40" height="34" fill="#A06504"/>
<rect x="556" y="288" width="40" height="34" fill="#8E5A0B"/>
<rect x="596" y="288" width="40" height="34" fill="#7C5010"/>
<rect x="636" y="288" width="40" height="34" fill="#6A4515"/>
<rect x="676" y="288" width="40" height="34" fill="#583B16"/>
<rect x="716" y="288" width="40" height="34" fill="#473116"/>
<rect x="756" y="288" width="40" height="34" fill="#362715"/>
<rect x="796" y="288" width="40" height="34" fill="#251C11"/>
<rect x="836" y="288" width="40" height="34" fill="#15100B"/>
</g>
<rect x="116" y="288" width="760" height="34" rx="6" fill="none" stroke="#00000014"/>
<text x="104" y="309" font-size="13" font-weight="600" fill="#202124" text-anchor="end">Warning</text>
<clipPath id="r7"><rect x="116" y="328" width="760" height="34" rx="6"/></clipPath>
<g clip-path="url(#r7)">
<rect x="116" y="328" width="40" height="34" fill="#FFFFFF"/>
<rect x="156" y="328" width="40" height="34" fill="#F4EFEE"/>
<rect x="196" y="328" width="40" height="34" fill="#ECDEDC"/>
<rect x="236" y="328" width="40" height="34" fill="#E6CDC9"/>
<rect x="276" y="328" width="40" height="34" fill="#E0BCB6"/>
<rect x="316" y="328" width="40" height="34" fill="#DCAAA2"/>
<rect x="356" y="328" width="40" height="34" fill="#D6978D"/>
<rect x="396" y="328" width="40" height="34" fill="#D0857A"/>
<rect x="436" y="328" width="40" height="34" fill="#C87468"/>
<rect x="476" y="328" width="40" height="34" fill="#BB6559"/>
<rect x="516" y="328" width="40" height="34" fill="#A95A50"/>
<rect x="556" y="328" width="40" height="34" fill="#965147"/>
<rect x="596" y="328" width="40" height="34" fill="#824840"/>
<rect x="636" y="328" width="40" height="34" fill="#6E4039"/>
<rect x="676" y="328" width="40" height="34" fill="#5B3732"/>
<rect x="716" y="328" width="40" height="34" fill="#482E2A"/>
<rect x="756" y="328" width="40" height="34" fill="#362522"/>
<rect x="796" y="328" width="40" height="34" fill="#251B19"/>
<rect x="836" y="328" width="40" height="34" fill="#14100F"/>
</g>
<rect x="116" y="328" width="760" height="34" rx="6" fill="none" stroke="#00000014"/>
<text x="104" y="349" font-size="13" font-weight="600" fill="#202124" text-anchor="end">Danger</text>
<text x="24" y="400" font-size="11" fill="#9aa0a6">HCT Palette Generator — the 8 default palettes, perceptually-even tonal ramps (050 → 950). Generated from the engine.</text>
</svg>
